<?xml version="1.0" encoding="UTF-8" standalone="no"?>
<!-- Created with Inkscape (http://www.inkscape.org/) -->

<svg
   xmlns:dc="http://purl.org/dc/elements/1.1/"
   xmlns:cc="http://creativecommons.org/ns#"
   xmlns:rdf="http://www.w3.org/1999/02/22-rdf-syntax-ns#"
   xmlns:svg="http://www.w3.org/2000/svg"
   xmlns="http://www.w3.org/2000/svg"
   version="1.1"
   width="24"
   height="24"
   viewBox="0 0 24 24"
   id="svg2">
  <metadata
     id="metadata10">
    <rdf:RDF>
      <cc:Work
         rdf:about="">
        <dc:format>image/svg+xml</dc:format>
        <dc:type
           rdf:resource="http://purl.org/dc/dcmitype/StillImage" />
        <dc:title></dc:title>
      </cc:Work>
    </rdf:RDF>
  </metadata>
  <defs
     id="defs8" />
  <path
     d="M 5.273,6.545 14,0 v 2.182 l 8.727,9.818 -1.091,3.273 -8.727,-4.364 -2.182,5.455 2.182,4.364 v 3.273 L 3.091,19.637 2,12.001 z"
     id="path4"
     style="fill:#262626" />
  <path
     d="m 5.237288,1.7288135 a 0.35593221,0.35593221 0 1 1 -0.7118644,0 0.35593221,0.35593221 0 1 1 0.7118644,0 z"
     transform="matrix(1.4047619,0,0,1.4047619,6.4657474,2.541454)"
     id="path2991"
     style="fill:#ff0000;fill-opacity:1;stroke:none" />
  <path
     d="m 5.237288,1.7288135 a 0.35593221,0.35593221 0 1 1 -0.7118644,0 0.35593221,0.35593221 0 1 1 0.7118644,0 z"
     transform="matrix(1.4047619,0,0,1.4047619,5.086212,1.7917818)"
     id="path2991-3"
     style="fill:#ffb621;fill-opacity:1;stroke:none" />
  <path
     d="m 5.237288,1.7288135 a 0.35593221,0.35593221 0 1 1 -0.7118644,0 0.35593221,0.35593221 0 1 1 0.7118644,0 z"
     transform="matrix(1.4047619,0,0,1.4047619,5.4778342,3.9326219)"
     id="path2991-3-7"
     style="fill:#80a600;fill-opacity:1;stroke:none" />
  <path
     d="m 5.237288,1.7288135 a 0.35593221,0.35593221 0 1 1 -0.7118644,0 0.35593221,0.35593221 0 1 1 0.7118644,0 z"
     transform="matrix(1.4047619,0,0,1.4047619,3.9193651,3.2633933)"
     id="path2991-3-7-4"
     style="fill:#002ce6;fill-opacity:1;stroke:none" />
</svg>
